<?xml version="1.0" encoding="UTF-8"?>
<!DOCTYPE svg PUBLIC "-//W3C//DTD SVG 1.1//EN" "http://www.w3.org/Graphics/SVG/1.1/DTD/svg11.dtd">
<svg xmlns="http://www.w3.org/2000/svg" version="1.1" width="2525px" height="2619px" style="shape-rendering:geometricPrecision; text-rendering:geometricPrecision; image-rendering:optimizeQuality; fill-rule:evenodd; clip-rule:evenodd" xmlns:xlink="http://www.w3.org/1999/xlink">
<g><path style="opacity:0.946" fill="#80a63e" d="M 1461.5,214.5 C 1675.81,221.39 1861.14,297.223 2017.5,442C 2057.15,478.954 2092.31,519.454 2123,563.5C 2276.25,786.305 2318.58,1028.97 2250,1291.5C 2237.46,1340.44 2219.8,1387.44 2197,1432.5C 2099.82,1631.35 1947.65,1769.85 1740.5,1848C 1656.07,1879.69 1568.74,1897.02 1478.5,1900C 1320.69,1905.71 1172.03,1871.71 1032.5,1798C 1020.17,1791.17 1007.83,1784.33 995.5,1777.5C 977.972,1796.2 960.972,1815.36 944.5,1835C 940.139,1836.89 936.139,1836.22 932.5,1833C 883.363,1795.34 834.863,1756.84 787,1717.5C 784.828,1711.86 785.495,1706.52 789,1701.5C 803.167,1685.33 817.333,1669.17 831.5,1653C 686.173,1509.14 604.673,1334.64 587,1129.5C 573.44,950.079 613.44,783.746 707,630.5C 882.191,356.103 1133.69,217.437 1461.5,214.5 Z M 1482.5,331.5 C 1728.08,358.696 1917.42,475.363 2050.5,681.5C 2046.19,698.333 2036.19,703.167 2020.5,696C 1889.6,498.752 1705.26,390.419 1467.5,371C 1454.56,363.911 1451.89,354.245 1459.5,342C 1466.4,336.651 1474.07,333.151 1482.5,331.5 Z M 1343.5,501.5 C 1387.04,508.543 1412.54,533.876 1420,577.5C 1425.93,614.449 1414.43,644.615 1385.5,668C 1379.01,672.748 1372.34,677.248 1365.5,681.5C 1364.53,708.508 1363.37,735.508 1362,762.5C 1361.29,777.597 1359.79,792.597 1357.5,807.5C 1317.5,833.167 1277.5,858.833 1237.5,884.5C 1235.89,903.118 1234.89,921.785 1234.5,940.5C 1235.04,958.851 1235.87,977.185 1237,995.5C 1278.68,1021.3 1321.52,1045.3 1365.5,1067.5C 1435.5,1023.83 1506.17,981.161 1577.5,939.5C 1646.47,977.173 1714.13,1016.84 1780.5,1058.5C 1780.83,1059.33 1781.17,1060.17 1781.5,1061C 1783.91,1103.62 1784.91,1146.29 1784.5,1189C 1784.33,1213.17 1784.17,1237.33 1784,1261.5C 1783.83,1268.52 1783.33,1275.52 1782.5,1282.5C 1722,1319.85 1662.16,1358.18 1603,1397.5C 1601.14,1416.25 1600.31,1435.08 1600.5,1454C 1600.62,1472.18 1601.12,1490.34 1602,1508.5C 1603.75,1514.97 1607.08,1515.97 1612,1511.5C 1640.57,1443.6 1687.73,1393.1 1753.5,1360C 1829.54,1335.07 1904.87,1337.07 1979.5,1366C 1982.06,1368.29 1983.73,1371.13 1984.5,1374.5C 1964.03,1436.44 1930.03,1489.61 1882.5,1534C 1827.11,1580.14 1764.78,1592.48 1695.5,1571C 1686.16,1568.16 1677.16,1564.5 1668.5,1560C 1664.67,1557.5 1661.5,1554.33 1659,1550.5C 1658.34,1546.97 1659.51,1544.14 1662.5,1542C 1666.89,1539.14 1671.55,1536.81 1676.5,1535C 1707.49,1527.33 1738.49,1519.67 1769.5,1512C 1828.53,1494.95 1876.7,1462.11 1914,1413.5C 1917,1410.06 1917.16,1406.56 1914.5,1403C 1880.16,1399.27 1846.5,1402.6 1813.5,1413C 1713.3,1442.87 1641.3,1505.2 1597.5,1600C 1609.18,1634.56 1597.51,1647.39 1562.5,1638.5C 1561.98,1620.3 1559.81,1602.3 1556,1584.5C 1488.97,1463.37 1385.81,1403.04 1246.5,1403.5C 1244.02,1407.05 1243.86,1410.72 1246,1414.5C 1274.98,1455.08 1312.81,1484.25 1359.5,1502C 1405.25,1515.6 1451.25,1528.27 1497.5,1540C 1504,1545.47 1503.66,1550.8 1496.5,1556C 1432.83,1590 1369.17,1590 1305.5,1556C 1244.03,1509.83 1201.03,1450.16 1176.5,1377C 1180.12,1371.04 1184.79,1366.04 1190.5,1362C 1354.91,1309.24 1473.91,1360.4 1547.5,1515.5C 1550.61,1516.98 1553.44,1516.65 1556,1514.5C 1560.68,1476.6 1561.68,1438.6 1559,1400.5C 1496.41,1361.79 1434.24,1322.46 1372.5,1282.5C 1370.92,1233.51 1369.76,1184.51 1369,1135.5C 1368.67,1131.17 1368.33,1126.83 1368,1122.5C 1324.2,1093.35 1279.04,1066.35 1232.5,1041.5C 1176.99,1075.76 1120.65,1108.76 1063.5,1140.5C 1009.22,1110.86 956.215,1079.19 904.5,1045.5C 903.702,1043.92 903.202,1042.26 903,1040.5C 902.11,1011.84 901.61,983.174 901.5,954.5C 901.312,924.108 902.146,893.775 904,863.5C 956.091,828.105 1009.76,795.105 1065,764.5C 1116,792.5 1167,820.5 1218,848.5C 1251.38,830.438 1283.71,810.771 1315,789.5C 1320.71,753.62 1321.71,717.62 1318,681.5C 1302.85,672.358 1289.52,661.025 1278,647.5C 1251.22,592.809 1262.05,547.309 1310.5,511C 1321.22,506.409 1332.22,503.242 1343.5,501.5 Z M 1737.5,513.5 C 1742.25,513.136 1746.08,514.802 1749,518.5C 1753.75,524.327 1757.75,530.66 1761,537.5C 1780.02,582.244 1790.19,628.911 1791.5,677.5C 1787.64,783.273 1741.8,864.94 1654,922.5C 1646.48,918.654 1639.82,913.654 1634,907.5C 1616.54,887.24 1600.54,865.907 1586,843.5C 1549.44,777.625 1549.44,711.625 1586,645.5C 1622.27,591.223 1668.77,548.056 1725.5,516C 1729.64,515.161 1733.64,514.327 1737.5,513.5 Z M 1087.5,545.5 C 1106.52,546.657 1121.69,554.99 1133,570.5C 1149.93,598.203 1150.93,626.536 1136,655.5C 1123.41,672.882 1106.25,682.048 1084.5,683C 1079.5,683.667 1074.5,683.667 1069.5,683C 1035.41,666.523 1020.57,639.357 1025,601.5C 1033.82,569.167 1054.65,550.501 1087.5,545.5 Z M 946.5,676.5 C 962.968,685.078 966.134,697.078 956,712.5C 951.002,717.607 945.168,718.773 938.5,716C 929.615,713.961 925.615,708.461 926.5,699.5C 925.795,692.113 928.461,686.28 934.5,682C 938.475,679.854 942.475,678.02 946.5,676.5 Z M 1976.5,738.5 C 1981.57,738.34 1986.57,738.84 1991.5,740C 1993.63,743.13 1996.13,745.963 1999,748.5C 1999.67,805.832 1981.34,856.166 1944,899.5C 1912.98,931.418 1875.15,949.585 1830.5,954C 1813.53,955.337 1796.53,955.837 1779.5,955.5C 1768.29,881.118 1792.96,821.951 1853.5,778C 1890.63,752.679 1931.63,739.512 1976.5,738.5 Z M 790.5,757.5 C 794.846,757.334 799.179,757.501 803.5,758C 809.339,762.999 813.339,769.166 815.5,776.5C 783.295,852.989 764.461,932.656 759,1015.5C 749.965,1226.52 820.798,1405.02 971.5,1551C 1140.91,1697.22 1337.24,1755.56 1560.5,1726C 1572.48,1736.61 1572.48,1747.28 1560.5,1758C 1539.56,1763.71 1518.23,1767.04 1496.5,1768C 1234.46,1782.07 1021.63,1687.57 858,1484.5C 701.959,1260.8 674.626,1022.14 776,768.5C 779.951,763.466 784.784,759.799 790.5,757.5 Z M 1935.5,1042.5 C 1939.16,1041.87 1941.66,1043.21 1943,1046.5C 1946.76,1056.88 1949.26,1067.55 1950.5,1078.5C 1961.24,1079.07 1971.9,1080.24 1982.5,1082C 1992.85,1088.41 1992.85,1095.08 1982.5,1102C 1972.83,1103.28 1963.17,1104.44 1953.5,1105.5C 1951.3,1116.59 1947.8,1127.25 1943,1137.5C 1935.07,1142.7 1929.07,1141.04 1925,1132.5C 1924.2,1122.38 1922.7,1112.38 1920.5,1102.5C 1910.83,1102.67 1901.16,1102.5 1891.5,1102C 1882.02,1096.64 1881.02,1089.97 1888.5,1082C 1899.08,1080.11 1909.75,1078.94 1920.5,1078.5C 1922.37,1068.36 1924.87,1058.36 1928,1048.5C 1930.13,1045.85 1932.63,1043.85 1935.5,1042.5 Z M 878.5,1167.5 C 891.043,1165.19 899.21,1170.19 903,1182.5C 902.489,1198.34 894.322,1205.84 878.5,1205C 865.807,1200.24 861.64,1191.41 866,1178.5C 868.505,1172.82 872.671,1169.16 878.5,1167.5 Z M 1098.5,1226.5 C 1111,1226.49 1117.5,1232.83 1118,1245.5C 1120.25,1290.53 1119.91,1335.53 1117,1380.5C 1108.3,1396.93 1098.63,1397.6 1088,1382.5C 1086.08,1364.56 1085.24,1346.56 1085.5,1328.5C 1066.52,1326.35 1047.52,1326.02 1028.5,1327.5C 1026.26,1346.77 1024.76,1366.1 1024,1385.5C 1012.71,1398.08 1002.71,1397.08 994,1382.5C 992,1334.5 992,1286.5 994,1238.5C 1002.78,1225.07 1012.78,1224.07 1024,1235.5C 1024.37,1255 1026.2,1274.33 1029.5,1293.5C 1046.78,1296 1064.11,1296.16 1081.5,1294C 1082,1293.5 1082.5,1293 1083,1292.5C 1085.27,1274.22 1086.93,1255.89 1088,1237.5C 1090.38,1232.62 1093.88,1228.95 1098.5,1226.5 Z M 2026.5,1236.5 C 2034.11,1235.93 2039.28,1239.26 2042,1246.5C 2044.72,1255.47 2044.88,1264.3 2042.5,1273C 2032.86,1274.66 2023.19,1274.82 2013.5,1273.5C 1999.09,1254.09 2003.42,1241.75 2026.5,1236.5 Z M 1151.5,1510.5 C 1156.45,1509.63 1160.61,1510.96 1164,1514.5C 1175.87,1531.6 1172.03,1543.6 1152.5,1550.5C 1133.74,1545.06 1128.91,1533.73 1138,1516.5C 1142.06,1513.22 1146.56,1511.22 1151.5,1510.5 Z M 1694.5,1683.5 C 1702.87,1683.35 1708.37,1687.35 1711,1695.5C 1713.27,1704.49 1710.77,1711.99 1703.5,1718C 1688.16,1724.92 1672.66,1731.42 1657,1737.5C 1642.08,1732.83 1637.25,1723.33 1642.5,1709C 1657.9,1696.47 1675.23,1687.97 1694.5,1683.5 Z"/></g>
<g><path style="opacity:0.831" fill="#80a63e" d="M 1336.5,539.5 C 1363.19,537.697 1378.36,550.03 1382,576.5C 1382.86,590.204 1382.53,603.871 1381,617.5C 1379.05,624.058 1376.05,630.058 1372,635.5C 1349.82,649.668 1328.82,648.001 1309,630.5C 1298.63,607.373 1297.96,584.04 1307,560.5C 1310.42,555.077 1314.59,550.244 1319.5,546C 1324.89,542.752 1330.55,540.585 1336.5,539.5 Z"/></g>
<g><path style="opacity:0.823" fill="#80a63f" d="M 1081.5,564.5 C 1102.15,563.291 1115.65,572.625 1122,592.5C 1130.73,619.064 1125.23,642.231 1105.5,662C 1057.98,668.477 1038.15,647.977 1046,600.5C 1049.64,580.069 1061.48,568.069 1081.5,564.5 Z"/></g>
<g><path style="opacity:0.852" fill="#80a73e" d="M 1722.5,581.5 C 1726,585.865 1727.17,590.865 1726,596.5C 1718.52,654.073 1709.52,711.407 1699,768.5C 1690.39,805.338 1678.39,841.005 1663,875.5C 1656.73,881.097 1651.07,880.43 1646,873.5C 1603.94,796.946 1606.94,722.279 1655,649.5C 1674.36,623.638 1696.86,600.971 1722.5,581.5 Z"/></g>
<g><path style="opacity:0.808" fill="#80a63f" d="M 1941.5,785.5 C 1943.86,785.337 1946.19,785.503 1948.5,786C 1952.31,792.019 1952.47,798.185 1949,804.5C 1924.61,866.397 1880.77,907.397 1817.5,927.5C 1809.72,926.711 1806.39,922.378 1807.5,914.5C 1817.44,867.779 1842.78,831.946 1883.5,807C 1901.95,797.131 1921.28,789.965 1941.5,785.5 Z"/></g>
<g><path style="opacity:0.878" fill="#80a63e" d="M 1068.5,812.5 C 1072,813.104 1075.33,814.27 1078.5,816C 1115.9,838.239 1152.9,861.072 1189.5,884.5C 1193.32,929.802 1193.48,975.135 1190,1020.5C 1149.07,1045.38 1107.57,1069.38 1065.5,1092.5C 1022.46,1071.89 981.622,1047.89 943,1020.5C 942.933,974.138 944.099,927.805 946.5,881.5C 982.632,859.865 1018.63,838.032 1054.5,816C 1059.14,814.223 1063.8,813.056 1068.5,812.5 Z"/></g>
<g><path style="opacity:0.935" fill="#80a63e" d="M 1573.5,988.5 C 1578.18,988.334 1582.85,988.501 1587.5,989C 1638.57,1020.24 1689.23,1052.07 1739.5,1084.5C 1743.32,1144.48 1743.49,1204.48 1740,1264.5C 1691.71,1292.48 1644.21,1321.64 1597.5,1352C 1584.82,1359.27 1572.16,1359.27 1559.5,1352C 1512.68,1321.05 1464.68,1291.88 1415.5,1264.5C 1414.67,1257.52 1414.17,1250.52 1414,1243.5C 1413.33,1197.5 1413.33,1151.5 1414,1105.5C 1414.17,1098.48 1414.67,1091.48 1415.5,1084.5C 1464.84,1054.5 1513.84,1024 1562.5,993C 1566.27,991.441 1569.93,989.941 1573.5,988.5 Z"/></g>
<g><path style="opacity:0.963" fill="#80a63e" d="M 720.5,1737.5 C 728.253,1737.1 735.92,1737.6 743.5,1739C 806.449,1786.94 867.949,1836.77 928,1888.5C 930.277,1901.94 929.944,1915.28 927,1928.5C 776.288,2112.88 625.955,2297.54 476,2482.5C 425.766,2541.62 364.266,2557.12 291.5,2529C 286.167,2526.67 280.833,2524.33 275.5,2522C 211.449,2472 193.282,2408.5 221,2331.5C 247.384,2297.45 273.384,2263.12 299,2228.5C 431.643,2072.87 561.643,1915.21 689,1755.5C 697.754,1746.2 708.254,1740.2 720.5,1737.5 Z"/></g>
</svg>
